<svg width="800" height="300" viewBox="0 0 800 300" fill="none" xmlns="http://www.w3.org/2000/svg">
    <g clip-path="url(#clip0_2739_945)">
        <rect width="800" height="300" fill="white"/>
        <path d="M63.6667 28.6667H61V27H68L66.3333 28.6667H65.3333V34H63.6667V28.6667Z" fill="#222222"/>
        <path d="M74.3333 28.6667H70.6667V32.3333H74.3333L76 34H69V27H76L74.3333 28.6667Z" fill="#222222"/>
        <path d="M82.3333 28.6667H78.6667V32.3333H82.3333L82.3333 32L80.6666 30.3333H84V34H77V27H84L82.3333 28.6667Z" fill="#555555"/>
        <path d="M87.6667 28.6667H85V27H92L90.3333 28.6667H89.3333V34H87.6667V28.6667Z" fill="#555555"/>
        <path d="M89.3333 32.3333H92V34H85L86.6667 32.3333H87.6667V27H89.3333V32.3333Z" fill="#555555"/>
        <path d="M28.5 21.0403L32.5 24.2403V39.9597L28.5 36.7597V21.0403Z" stroke="black"/>
        <path d="M27 41V24L22 20V37L27 41Z" fill="black"/>
        <path d="M35 37V24H34V37H35Z" fill="#555555"/>
        <path d="M37 37V24H36V37H37Z" fill="#555555"/>
        <path d="M39 37V24H38V37H39Z" fill="#555555"/>
        <path d="M208.61 121H205.91V99.58H217.88V101.95H208.61V109.54H217.31V111.91H208.61V121ZM227.197 104.65C229.157 104.65 230.607 105.08 231.547 105.94C232.487 106.8 232.957 108.17 232.957 110.05V121H231.037L230.527 118.72H230.407C229.947 119.3 229.467 119.79 228.967 120.19C228.487 120.57 227.927 120.85 227.287 121.03C226.667 121.21 225.907 121.3 225.007 121.3C224.047 121.3 223.177 121.13 222.397 120.79C221.637 120.45 221.037 119.93 220.597 119.23C220.157 118.51 219.937 117.61 219.937 116.53C219.937 114.93 220.567 113.7 221.827 112.84C223.087 111.96 225.027 111.48 227.647 111.4L230.377 111.31V110.35C230.377 109.01 230.087 108.08 229.507 107.56C228.927 107.04 228.107 106.78 227.047 106.78C226.207 106.78 225.407 106.91 224.647 107.17C223.887 107.41 223.177 107.69 222.517 108.01L221.707 106.03C222.407 105.65 223.237 105.33 224.197 105.07C225.157 104.79 226.157 104.65 227.197 104.65ZM227.977 113.23C225.977 113.31 224.587 113.63 223.807 114.19C223.047 114.75 222.667 115.54 222.667 116.56C222.667 117.46 222.937 118.12 223.477 118.54C224.037 118.96 224.747 119.17 225.607 119.17C226.967 119.17 228.097 118.8 228.997 118.06C229.897 117.3 230.347 116.14 230.347 114.58V113.14L227.977 113.23ZM248.393 116.56C248.393 117.6 248.133 118.47 247.613 119.17C247.093 119.87 246.353 120.4 245.393 120.76C244.433 121.12 243.293 121.3 241.973 121.3C240.853 121.3 239.883 121.21 239.063 121.03C238.263 120.85 237.553 120.6 236.933 120.28V117.88C237.573 118.2 238.343 118.5 239.243 118.78C240.163 119.04 241.093 119.17 242.033 119.17C243.373 119.17 244.343 118.96 244.943 118.54C245.543 118.1 245.843 117.52 245.843 116.8C245.843 116.4 245.733 116.04 245.513 115.72C245.293 115.4 244.893 115.08 244.313 114.76C243.753 114.44 242.943 114.08 241.883 113.68C240.843 113.28 239.953 112.88 239.213 112.48C238.473 112.08 237.903 111.6 237.503 111.04C237.103 110.48 236.903 109.76 236.903 108.88C236.903 107.52 237.453 106.47 238.553 105.73C239.673 104.99 241.133 104.62 242.933 104.62C243.913 104.62 244.823 104.72 245.663 104.92C246.523 105.1 247.323 105.36 248.063 105.7L247.163 107.8C246.723 107.6 246.253 107.43 245.753 107.29C245.273 107.13 244.783 107.01 244.283 106.93C243.783 106.83 243.273 106.78 242.753 106.78C241.673 106.78 240.843 106.96 240.263 107.32C239.703 107.66 239.423 108.13 239.423 108.73C239.423 109.17 239.553 109.55 239.813 109.87C240.073 110.17 240.503 110.47 241.103 110.77C241.723 111.05 242.543 111.39 243.563 111.79C244.583 112.17 245.453 112.56 246.173 112.96C246.893 113.36 247.443 113.85 247.823 114.43C248.203 114.99 248.393 115.7 248.393 116.56ZM257.649 119.14C258.049 119.14 258.459 119.11 258.879 119.05C259.299 118.97 259.639 118.89 259.899 118.81V120.82C259.619 120.96 259.219 121.07 258.699 121.15C258.179 121.25 257.679 121.3 257.199 121.3C256.359 121.3 255.579 121.16 254.859 120.88C254.159 120.58 253.589 120.07 253.149 119.35C252.709 118.63 252.489 117.62 252.489 116.32V106.96H250.209V105.7L252.519 104.65L253.569 101.23H255.129V104.92H259.779V106.96H255.129V116.26C255.129 117.24 255.359 117.97 255.819 118.45C256.299 118.91 256.909 119.14 257.649 119.14ZM278.411 104.62C278.711 104.62 279.031 104.64 279.371 104.68C279.731 104.7 280.041 104.74 280.301 104.8L279.971 107.23C279.711 107.17 279.421 107.12 279.101 107.08C278.801 107.04 278.511 107.02 278.231 107.02C277.611 107.02 277.021 107.15 276.461 107.41C275.901 107.67 275.401 108.04 274.961 108.52C274.521 108.98 274.171 109.54 273.911 110.2C273.671 110.86 273.551 111.6 273.551 112.42V121H270.911V104.92H273.071L273.371 107.86H273.491C273.831 107.26 274.241 106.72 274.721 106.24C275.201 105.74 275.751 105.35 276.371 105.07C276.991 104.77 277.671 104.62 278.411 104.62ZM288.928 104.62C290.308 104.62 291.488 104.92 292.468 105.52C293.468 106.12 294.228 106.97 294.748 108.07C295.288 109.15 295.558 110.42 295.558 111.88V113.47H284.548C284.588 115.29 285.048 116.68 285.928 117.64C286.828 118.58 288.078 119.05 289.678 119.05C290.698 119.05 291.598 118.96 292.378 118.78C293.178 118.58 293.998 118.3 294.838 117.94V120.25C294.018 120.61 293.208 120.87 292.408 121.03C291.608 121.21 290.658 121.3 289.558 121.3C288.038 121.3 286.688 120.99 285.508 120.37C284.348 119.75 283.438 118.83 282.778 117.61C282.138 116.37 281.818 114.86 281.818 113.08C281.818 111.32 282.108 109.81 282.688 108.55C283.288 107.29 284.118 106.32 285.178 105.64C286.258 104.96 287.508 104.62 288.928 104.62ZM288.898 106.78C287.638 106.78 286.638 107.19 285.898 108.01C285.178 108.81 284.748 109.93 284.608 111.37H292.798C292.798 110.45 292.658 109.65 292.378 108.97C292.098 108.29 291.668 107.76 291.088 107.38C290.528 106.98 289.798 106.78 288.898 106.78ZM305.742 104.65C307.702 104.65 309.152 105.08 310.092 105.94C311.032 106.8 311.502 108.17 311.502 110.05V121H309.582L309.072 118.72H308.952C308.492 119.3 308.012 119.79 307.512 120.19C307.032 120.57 306.472 120.85 305.832 121.03C305.212 121.21 304.452 121.3 303.552 121.3C302.592 121.3 301.722 121.13 300.942 120.79C300.182 120.45 299.582 119.93 299.142 119.23C298.702 118.51 298.482 117.61 298.482 116.53C298.482 114.93 299.112 113.7 300.372 112.84C301.632 111.96 303.572 111.48 306.192 111.4L308.922 111.31V110.35C308.922 109.01 308.632 108.08 308.052 107.56C307.472 107.04 306.652 106.78 305.592 106.78C304.752 106.78 303.952 106.91 303.192 107.17C302.432 107.41 301.722 107.69 301.062 108.01L300.252 106.03C300.952 105.65 301.782 105.33 302.742 105.07C303.702 104.79 304.702 104.65 305.742 104.65ZM306.522 113.23C304.522 113.31 303.132 113.63 302.352 114.19C301.592 114.75 301.212 115.54 301.212 116.56C301.212 117.46 301.482 118.12 302.022 118.54C302.582 118.96 303.292 119.17 304.152 119.17C305.512 119.17 306.642 118.8 307.542 118.06C308.442 117.3 308.892 116.14 308.892 114.58V113.14L306.522 113.23ZM322.918 121.3C321.498 121.3 320.228 121.01 319.108 120.43C318.008 119.85 317.138 118.95 316.498 117.73C315.878 116.51 315.568 114.95 315.568 113.05C315.568 111.07 315.898 109.46 316.558 108.22C317.218 106.98 318.108 106.07 319.228 105.49C320.368 104.91 321.658 104.62 323.098 104.62C323.918 104.62 324.708 104.71 325.468 104.89C326.228 105.05 326.848 105.25 327.328 105.49L326.518 107.68C326.038 107.5 325.478 107.33 324.838 107.17C324.198 107.01 323.598 106.93 323.038 106.93C321.958 106.93 321.068 107.16 320.368 107.62C319.668 108.08 319.148 108.76 318.808 109.66C318.468 110.56 318.298 111.68 318.298 113.02C318.298 114.3 318.468 115.39 318.808 116.29C319.148 117.19 319.658 117.87 320.338 118.33C321.018 118.79 321.868 119.02 322.888 119.02C323.768 119.02 324.538 118.93 325.198 118.75C325.878 118.57 326.498 118.35 327.058 118.09V120.43C326.518 120.71 325.918 120.92 325.258 121.06C324.618 121.22 323.838 121.3 322.918 121.3ZM336.252 119.14C336.652 119.14 337.062 119.11 337.482 119.05C337.902 118.97 338.242 118.89 338.502 118.81V120.82C338.222 120.96 337.822 121.07 337.302 121.15C336.782 121.25 336.282 121.3 335.802 121.3C334.962 121.3 334.182 121.16 333.462 120.88C332.762 120.58 332.192 120.07 331.752 119.35C331.312 118.63 331.092 117.62 331.092 116.32V106.96H328.812V105.7L331.122 104.65L332.172 101.23H333.732V104.92H338.382V106.96H333.732V116.26C333.732 117.24 333.962 117.97 334.422 118.45C334.902 118.91 335.512 119.14 336.252 119.14ZM344.362 104.92V121H341.722V104.92H344.362ZM343.072 98.89C343.472 98.89 343.822 99.03 344.122 99.31C344.442 99.57 344.602 99.99 344.602 100.57C344.602 101.13 344.442 101.55 344.122 101.83C343.822 102.11 343.472 102.25 343.072 102.25C342.632 102.25 342.262 102.11 341.962 101.83C341.662 101.55 341.512 101.13 341.512 100.57C341.512 99.99 341.662 99.57 341.962 99.31C342.262 99.03 342.632 98.89 343.072 98.89ZM352.996 121L346.906 104.92H349.726L353.146 114.4C353.306 114.84 353.476 115.33 353.656 115.87C353.836 116.41 353.996 116.93 354.136 117.43C354.276 117.91 354.376 118.32 354.436 118.66H354.556C354.636 118.32 354.746 117.9 354.886 117.4C355.046 116.9 355.216 116.38 355.396 115.84C355.596 115.3 355.766 114.82 355.906 114.4L359.326 104.92H362.146L356.026 121H352.996ZM370.901 104.62C372.281 104.62 373.461 104.92 374.441 105.52C375.441 106.12 376.201 106.97 376.721 108.07C377.261 109.15 377.531 110.42 377.531 111.88V113.47H366.521C366.561 115.29 367.021 116.68 367.901 117.64C368.801 118.58 370.051 119.05 371.651 119.05C372.671 119.05 373.571 118.96 374.351 118.78C375.151 118.58 375.971 118.3 376.811 117.94V120.25C375.991 120.61 375.181 120.87 374.381 121.03C373.581 121.21 372.631 121.3 371.531 121.3C370.011 121.3 368.661 120.99 367.481 120.37C366.321 119.75 365.411 118.83 364.751 117.61C364.111 116.37 363.791 114.86 363.791 113.08C363.791 111.32 364.081 109.81 364.661 108.55C365.261 107.29 366.091 106.32 367.151 105.64C368.231 104.96 369.481 104.62 370.901 104.62ZM370.871 106.78C369.611 106.78 368.611 107.19 367.871 108.01C367.151 108.81 366.721 109.93 366.581 111.37H374.771C374.771 110.45 374.631 109.65 374.351 108.97C374.071 108.29 373.641 107.76 373.061 107.38C372.501 106.98 371.771 106.78 370.871 106.78ZM395.867 121.3C394.447 121.3 393.177 121.01 392.057 120.43C390.957 119.85 390.087 118.95 389.447 117.73C388.827 116.51 388.517 114.95 388.517 113.05C388.517 111.07 388.847 109.46 389.507 108.22C390.167 106.98 391.057 106.07 392.177 105.49C393.317 104.91 394.607 104.62 396.047 104.62C396.867 104.62 397.657 104.71 398.417 104.89C399.177 105.05 399.797 105.25 400.277 105.49L399.467 107.68C398.987 107.5 398.427 107.33 397.787 107.17C397.147 107.01 396.547 106.93 395.987 106.93C394.907 106.93 394.017 107.16 393.317 107.62C392.617 108.08 392.097 108.76 391.757 109.66C391.417 110.56 391.247 111.68 391.247 113.02C391.247 114.3 391.417 115.39 391.757 116.29C392.097 117.19 392.607 117.87 393.287 118.33C393.967 118.79 394.817 119.02 395.837 119.02C396.717 119.02 397.487 118.93 398.147 118.75C398.827 118.57 399.447 118.35 400.007 118.09V120.43C399.467 120.71 398.867 120.92 398.207 121.06C397.567 121.22 396.787 121.3 395.867 121.3ZM417.811 112.93C417.811 114.27 417.631 115.46 417.271 116.5C416.931 117.52 416.431 118.39 415.771 119.11C415.131 119.83 414.341 120.38 413.401 120.76C412.481 121.12 411.451 121.3 410.311 121.3C409.251 121.3 408.271 121.12 407.371 120.76C406.471 120.38 405.691 119.83 405.031 119.11C404.371 118.39 403.851 117.52 403.471 116.5C403.111 115.46 402.931 114.27 402.931 112.93C402.931 111.15 403.231 109.65 403.831 108.43C404.431 107.19 405.291 106.25 406.411 105.61C407.531 104.95 408.861 104.62 410.401 104.62C411.861 104.62 413.141 104.95 414.241 105.61C415.361 106.25 416.231 107.19 416.851 108.43C417.491 109.65 417.811 111.15 417.811 112.93ZM405.661 112.93C405.661 114.19 405.821 115.29 406.141 116.23C406.481 117.15 407.001 117.86 407.701 118.36C408.401 118.86 409.291 119.11 410.371 119.11C411.451 119.11 412.341 118.86 413.041 118.36C413.741 117.86 414.251 117.15 414.571 116.23C414.911 115.29 415.081 114.19 415.081 112.93C415.081 111.65 414.911 110.56 414.571 109.66C414.231 108.76 413.711 108.07 413.011 107.59C412.331 107.09 411.441 106.84 410.341 106.84C408.701 106.84 407.511 107.38 406.771 108.46C406.031 109.54 405.661 111.03 405.661 112.93ZM439.635 104.62C441.455 104.62 442.815 105.09 443.715 106.03C444.615 106.95 445.065 108.45 445.065 110.53V121H442.455V110.65C442.455 109.39 442.185 108.44 441.645 107.8C441.125 107.16 440.305 106.84 439.185 106.84C437.625 106.84 436.505 107.29 435.825 108.19C435.165 109.09 434.835 110.4 434.835 112.12V121H432.225V110.65C432.225 109.81 432.105 109.11 431.865 108.55C431.625 107.97 431.265 107.54 430.785 107.26C430.305 106.98 429.685 106.84 428.925 106.84C427.845 106.84 426.995 107.07 426.375 107.53C425.755 107.97 425.305 108.62 425.025 109.48C424.765 110.34 424.635 111.4 424.635 112.66V121H421.995V104.92H424.125L424.515 107.11H424.665C425.005 106.55 425.415 106.09 425.895 105.73C426.395 105.35 426.945 105.07 427.545 104.89C428.145 104.71 428.765 104.62 429.405 104.62C430.645 104.62 431.675 104.84 432.495 105.28C433.335 105.72 433.945 106.4 434.325 107.32H434.475C435.015 106.4 435.745 105.72 436.665 105.28C437.605 104.84 438.595 104.62 439.635 104.62ZM457.682 104.62C459.662 104.62 461.252 105.31 462.452 106.69C463.672 108.07 464.282 110.15 464.282 112.93C464.282 114.75 464.002 116.29 463.442 117.55C462.902 118.79 462.132 119.73 461.132 120.37C460.152 120.99 458.992 121.3 457.652 121.3C456.832 121.3 456.102 121.19 455.462 120.97C454.822 120.75 454.272 120.47 453.812 120.13C453.372 119.77 452.992 119.38 452.672 118.96H452.492C452.532 119.3 452.572 119.73 452.612 120.25C452.652 120.77 452.672 121.22 452.672 121.6V128.2H450.032V104.92H452.192L452.552 107.11H452.672C452.992 106.65 453.372 106.23 453.812 105.85C454.272 105.47 454.812 105.17 455.432 104.95C456.072 104.73 456.822 104.62 457.682 104.62ZM457.202 106.84C456.122 106.84 455.252 107.05 454.592 107.47C453.932 107.87 453.452 108.48 453.152 109.3C452.852 110.12 452.692 111.16 452.672 112.42V112.93C452.672 114.25 452.812 115.37 453.092 116.29C453.372 117.21 453.842 117.91 454.502 118.39C455.182 118.87 456.102 119.11 457.262 119.11C458.242 119.11 459.042 118.84 459.662 118.3C460.302 117.76 460.772 117.03 461.072 116.11C461.392 115.17 461.552 114.1 461.552 112.9C461.552 111.06 461.192 109.59 460.472 108.49C459.772 107.39 458.682 106.84 457.202 106.84ZM482.469 112.93C482.469 114.27 482.289 115.46 481.929 116.5C481.589 117.52 481.089 118.39 480.429 119.11C479.789 119.83 478.999 120.38 478.059 120.76C477.139 121.12 476.109 121.3 474.969 121.3C473.909 121.3 472.929 121.12 472.029 120.76C471.129 120.38 470.349 119.83 469.689 119.11C469.029 118.39 468.509 117.52 468.129 116.5C467.769 115.46 467.589 114.27 467.589 112.93C467.589 111.15 467.889 109.65 468.489 108.43C469.089 107.19 469.949 106.25 471.069 105.61C472.189 104.95 473.519 104.62 475.059 104.62C476.519 104.62 477.799 104.95 478.899 105.61C480.019 106.25 480.889 107.19 481.509 108.43C482.149 109.65 482.469 111.15 482.469 112.93ZM470.319 112.93C470.319 114.19 470.479 115.29 470.799 116.23C471.139 117.15 471.659 117.86 472.359 118.36C473.059 118.86 473.949 119.11 475.029 119.11C476.109 119.11 476.999 118.86 477.699 118.36C478.399 117.86 478.909 117.15 479.229 116.23C479.569 115.29 479.739 114.19 479.739 112.93C479.739 111.65 479.569 110.56 479.229 109.66C478.889 108.76 478.369 108.07 477.669 107.59C476.989 107.09 476.099 106.84 474.999 106.84C473.359 106.84 472.169 107.38 471.429 108.46C470.689 109.54 470.319 111.03 470.319 112.93ZM494.394 104.62C496.314 104.62 497.764 105.09 498.744 106.03C499.724 106.95 500.214 108.45 500.214 110.53V121H497.604V110.71C497.604 109.41 497.314 108.44 496.734 107.8C496.154 107.16 495.244 106.84 494.004 106.84C492.224 106.84 490.994 107.34 490.314 108.34C489.634 109.34 489.294 110.78 489.294 112.66V121H486.654V104.92H488.784L489.174 107.11H489.324C489.684 106.55 490.124 106.09 490.644 105.73C491.184 105.35 491.774 105.07 492.414 104.89C493.054 104.71 493.714 104.62 494.394 104.62ZM511.408 104.62C512.788 104.62 513.968 104.92 514.948 105.52C515.948 106.12 516.708 106.97 517.228 108.07C517.768 109.15 518.038 110.42 518.038 111.88V113.47H507.028C507.068 115.29 507.528 116.68 508.408 117.64C509.308 118.58 510.558 119.05 512.158 119.05C513.178 119.05 514.078 118.96 514.858 118.78C515.658 118.58 516.478 118.3 517.318 117.94V120.25C516.498 120.61 515.688 120.87 514.888 121.03C514.088 121.21 513.138 121.3 512.038 121.3C510.518 121.3 509.168 120.99 507.988 120.37C506.828 119.75 505.918 118.83 505.258 117.61C504.618 116.37 504.298 114.86 504.298 113.08C504.298 111.32 504.588 109.81 505.168 108.55C505.768 107.29 506.598 106.32 507.658 105.64C508.738 104.96 509.988 104.62 511.408 104.62ZM511.378 106.78C510.118 106.78 509.118 107.19 508.378 108.01C507.658 108.81 507.228 109.93 507.088 111.37H515.278C515.278 110.45 515.138 109.65 514.858 108.97C514.578 108.29 514.148 107.76 513.568 107.38C513.008 106.98 512.278 106.78 511.378 106.78ZM529.872 104.62C531.792 104.62 533.242 105.09 534.222 106.03C535.202 106.95 535.692 108.45 535.692 110.53V121H533.082V110.71C533.082 109.41 532.792 108.44 532.212 107.8C531.632 107.16 530.722 106.84 529.482 106.84C527.702 106.84 526.472 107.34 525.792 108.34C525.112 109.34 524.772 110.78 524.772 112.66V121H522.132V104.92H524.262L524.652 107.11H524.802C525.162 106.55 525.602 106.09 526.122 105.73C526.662 105.35 527.252 105.07 527.892 104.89C528.532 104.71 529.192 104.62 529.872 104.62ZM546.047 119.14C546.447 119.14 546.857 119.11 547.277 119.05C547.697 118.97 548.037 118.89 548.297 118.81V120.82C548.017 120.96 547.617 121.07 547.097 121.15C546.577 121.25 546.077 121.3 545.597 121.3C544.757 121.3 543.977 121.16 543.257 120.88C542.557 120.58 541.987 120.07 541.547 119.35C541.107 118.63 540.887 117.62 540.887 116.32V106.96H538.607V105.7L540.917 104.65L541.967 101.23H543.527V104.92H548.177V106.96H543.527V116.26C543.527 117.24 543.757 117.97 544.217 118.45C544.697 118.91 545.307 119.14 546.047 119.14ZM216.02 157.56C216.02 158.6 215.76 159.47 215.24 160.17C214.72 160.87 213.98 161.4 213.02 161.76C212.06 162.12 210.92 162.3 209.6 162.3C208.48 162.3 207.51 162.21 206.69 162.03C205.89 161.85 205.18 161.6 204.56 161.28V158.88C205.2 159.2 205.97 159.5 206.87 159.78C207.79 160.04 208.72 160.17 209.66 160.17C211 160.17 211.97 159.96 212.57 159.54C213.17 159.1 213.47 158.52 213.47 157.8C213.47 157.4 213.36 157.04 213.14 156.72C212.92 156.4 212.52 156.08 211.94 155.76C211.38 155.44 210.57 155.08 209.51 154.68C208.47 154.28 207.58 153.88 206.84 153.48C206.1 153.08 205.53 152.6 205.13 152.04C204.73 151.48 204.53 150.76 204.53 149.88C204.53 148.52 205.08 147.47 206.18 146.73C207.3 145.99 208.76 145.62 210.56 145.62C211.54 145.62 212.45 145.72 213.29 145.92C214.15 146.1 214.95 146.36 215.69 146.7L214.79 148.8C214.35 148.6 213.88 148.43 213.38 148.29C212.9 148.13 212.41 148.01 211.91 147.93C211.41 147.83 210.9 147.78 210.38 147.78C209.3 147.78 208.47 147.96 207.89 148.32C207.33 148.66 207.05 149.13 207.05 149.73C207.05 150.17 207.18 150.55 207.44 150.87C207.7 151.17 208.13 151.47 208.73 151.77C209.35 152.05 210.17 152.39 211.19 152.79C212.21 153.17 213.08 153.56 213.8 153.96C214.52 154.36 215.07 154.85 215.45 155.43C215.83 155.99 216.02 156.7 216.02 157.56ZM217.385 145.92H220.205L223.685 155.07C223.885 155.61 224.065 156.13 224.225 156.63C224.405 157.13 224.565 157.62 224.705 158.1C224.845 158.56 224.955 159.01 225.035 159.45H225.155C225.275 158.95 225.465 158.3 225.725 157.5C225.985 156.68 226.255 155.86 226.535 155.04L229.805 145.92H232.655L225.725 164.22C225.345 165.22 224.895 166.09 224.375 166.83C223.875 167.59 223.255 168.17 222.515 168.57C221.795 168.99 220.915 169.2 219.875 169.2C219.395 169.2 218.975 169.17 218.615 169.11C218.255 169.07 217.945 169.02 217.685 168.96V166.86C217.905 166.9 218.165 166.94 218.465 166.98C218.785 167.02 219.115 167.04 219.455 167.04C220.075 167.04 220.605 166.92 221.045 166.68C221.505 166.46 221.895 166.13 222.215 165.69C222.535 165.27 222.805 164.77 223.025 164.19L223.865 162.06L217.385 145.92ZM245.668 157.56C245.668 158.6 245.408 159.47 244.888 160.17C244.368 160.87 243.628 161.4 242.668 161.76C241.708 162.12 240.568 162.3 239.248 162.3C238.128 162.3 237.158 162.21 236.338 162.03C235.538 161.85 234.828 161.6 234.208 161.28V158.88C234.848 159.2 235.618 159.5 236.518 159.78C237.438 160.04 238.368 160.17 239.308 160.17C240.648 160.17 241.618 159.96 242.218 159.54C242.818 159.1 243.118 158.52 243.118 157.8C243.118 157.4 243.008 157.04 242.788 156.72C242.568 156.4 242.168 156.08 241.588 155.76C241.028 155.44 240.218 155.08 239.158 154.68C238.118 154.28 237.228 153.88 236.488 153.48C235.748 153.08 235.178 152.6 234.778 152.04C234.378 151.48 234.178 150.76 234.178 149.88C234.178 148.52 234.728 147.47 235.828 146.73C236.948 145.99 238.408 145.62 240.208 145.62C241.188 145.62 242.098 145.72 242.938 145.92C243.798 146.1 244.598 146.36 245.338 146.7L244.438 148.8C243.998 148.6 243.528 148.43 243.028 148.29C242.548 148.13 242.058 148.01 241.558 147.93C241.058 147.83 240.548 147.78 240.028 147.78C238.948 147.78 238.118 147.96 237.538 148.32C236.978 148.66 236.698 149.13 236.698 149.73C236.698 150.17 236.828 150.55 237.088 150.87C237.348 151.17 237.778 151.47 238.378 151.77C238.998 152.05 239.818 152.39 240.838 152.79C241.858 153.17 242.728 153.56 243.448 153.96C244.168 154.36 244.718 154.85 245.098 155.43C245.478 155.99 245.668 156.7 245.668 157.56ZM254.924 160.14C255.324 160.14 255.734 160.11 256.154 160.05C256.574 159.97 256.914 159.89 257.174 159.81V161.82C256.894 161.96 256.494 162.07 255.974 162.15C255.454 162.25 254.954 162.3 254.474 162.3C253.634 162.3 252.854 162.16 252.134 161.88C251.434 161.58 250.864 161.07 250.424 160.35C249.984 159.63 249.764 158.62 249.764 157.32V147.96H247.484V146.7L249.794 145.65L250.844 142.23H252.404V145.92H257.054V147.96H252.404V157.26C252.404 158.24 252.634 158.97 253.094 159.45C253.574 159.91 254.184 160.14 254.924 160.14ZM266.604 145.62C267.984 145.62 269.164 145.92 270.144 146.52C271.144 147.12 271.904 147.97 272.424 149.07C272.964 150.15 273.234 151.42 273.234 152.88V154.47H262.224C262.264 156.29 262.724 157.68 263.604 158.64C264.504 159.58 265.754 160.05 267.354 160.05C268.374 160.05 269.274 159.96 270.054 159.78C270.854 159.58 271.674 159.3 272.514 158.94V161.25C271.694 161.61 270.884 161.87 270.084 162.03C269.284 162.21 268.334 162.3 267.234 162.3C265.714 162.3 264.364 161.99 263.184 161.37C262.024 160.75 261.114 159.83 260.454 158.61C259.814 157.37 259.494 155.86 259.494 154.08C259.494 152.32 259.784 150.81 260.364 149.55C260.964 148.29 261.794 147.32 262.854 146.64C263.934 145.96 265.184 145.62 266.604 145.62ZM266.574 147.78C265.314 147.78 264.314 148.19 263.574 149.01C262.854 149.81 262.424 150.93 262.284 152.37H270.474C270.474 151.45 270.334 150.65 270.054 149.97C269.774 149.29 269.344 148.76 268.764 148.38C268.204 147.98 267.474 147.78 266.574 147.78ZM294.967 145.62C296.787 145.62 298.147 146.09 299.047 147.03C299.947 147.95 300.397 149.45 300.397 151.53V162H297.787V151.65C297.787 150.39 297.517 149.44 296.977 148.8C296.457 148.16 295.637 147.84 294.517 147.84C292.957 147.84 291.837 148.29 291.157 149.19C290.497 150.09 290.167 151.4 290.167 153.12V162H287.557V151.65C287.557 150.81 287.437 150.11 287.197 149.55C286.957 148.97 286.597 148.54 286.117 148.26C285.637 147.98 285.017 147.84 284.257 147.84C283.177 147.84 282.327 148.07 281.707 148.53C281.087 148.97 280.637 149.62 280.357 150.48C280.097 151.34 279.967 152.4 279.967 153.66V162H277.327V145.92H279.457L279.847 148.11H279.997C280.337 147.55 280.747 147.09 281.227 146.73C281.727 146.35 282.277 146.07 282.877 145.89C283.477 145.71 284.097 145.62 284.737 145.62C285.977 145.62 287.007 145.84 287.827 146.28C288.667 146.72 289.277 147.4 289.657 148.32H289.807C290.347 147.4 291.077 146.72 291.997 146.28C292.937 145.84 293.927 145.62 294.967 145.62ZM320.567 147.96H316.517V162H313.877V147.96H311.057V146.73L313.877 145.83V144.9C313.877 143.52 314.077 142.4 314.477 141.54C314.897 140.68 315.497 140.05 316.277 139.65C317.057 139.25 317.997 139.05 319.097 139.05C319.737 139.05 320.317 139.11 320.837 139.23C321.377 139.33 321.837 139.45 322.217 139.59L321.527 141.66C321.207 141.56 320.837 141.46 320.417 141.36C319.997 141.26 319.567 141.21 319.127 141.21C318.247 141.21 317.587 141.51 317.147 142.11C316.727 142.69 316.517 143.61 316.517 144.87V145.92H320.567V147.96ZM337.45 153.93C337.45 155.27 337.27 156.46 336.91 157.5C336.57 158.52 336.07 159.39 335.41 160.11C334.77 160.83 333.98 161.38 333.04 161.76C332.12 162.12 331.09 162.3 329.95 162.3C328.89 162.3 327.91 162.12 327.01 161.76C326.11 161.38 325.33 160.83 324.67 160.11C324.01 159.39 323.49 158.52 323.11 157.5C322.75 156.46 322.57 155.27 322.57 153.93C322.57 152.15 322.87 150.65 323.47 149.43C324.07 148.19 324.93 147.25 326.05 146.61C327.17 145.95 328.5 145.62 330.04 145.62C331.5 145.62 332.78 145.95 333.88 146.61C335 147.25 335.87 148.19 336.49 149.43C337.13 150.65 337.45 152.15 337.45 153.93ZM325.3 153.93C325.3 155.19 325.46 156.29 325.78 157.23C326.12 158.15 326.64 158.86 327.34 159.36C328.04 159.86 328.93 160.11 330.01 160.11C331.09 160.11 331.98 159.86 332.68 159.36C333.38 158.86 333.89 158.15 334.21 157.23C334.55 156.29 334.72 155.19 334.72 153.93C334.72 152.65 334.55 151.56 334.21 150.66C333.87 149.76 333.35 149.07 332.65 148.59C331.97 148.09 331.08 147.84 329.98 147.84C328.34 147.84 327.15 148.38 326.41 149.46C325.67 150.54 325.3 152.03 325.3 153.93ZM349.134 145.62C349.434 145.62 349.754 145.64 350.094 145.68C350.454 145.7 350.764 145.74 351.024 145.8L350.694 148.23C350.434 148.17 350.144 148.12 349.824 148.08C349.524 148.04 349.234 148.02 348.954 148.02C348.334 148.02 347.744 148.15 347.184 148.41C346.624 148.67 346.124 149.04 345.684 149.52C345.244 149.98 344.894 150.54 344.634 151.2C344.394 151.86 344.274 152.6 344.274 153.42V162H341.634V145.92H343.794L344.094 148.86H344.214C344.554 148.26 344.964 147.72 345.444 147.24C345.924 146.74 346.474 146.35 347.094 146.07C347.714 145.77 348.394 145.62 349.134 145.62ZM368.96 162H366.26V142.95H359.57V140.58H375.62V142.95H368.96V162ZM375.384 145.92H378.204L381.684 155.07C381.884 155.61 382.064 156.13 382.224 156.63C382.404 157.13 382.564 157.62 382.704 158.1C382.844 158.56 382.954 159.01 383.034 159.45H383.154C383.274 158.95 383.464 158.3 383.724 157.5C383.984 156.68 384.254 155.86 384.534 155.04L387.804 145.92H390.654L383.724 164.22C383.344 165.22 382.894 166.09 382.374 166.83C381.874 167.59 381.254 168.17 380.514 168.57C379.794 168.99 378.914 169.2 377.874 169.2C377.394 169.2 376.974 169.17 376.614 169.11C376.254 169.07 375.944 169.02 375.684 168.96V166.86C375.904 166.9 376.164 166.94 376.464 166.98C376.784 167.02 377.114 167.04 377.454 167.04C378.074 167.04 378.604 166.92 379.044 166.68C379.504 166.46 379.894 166.13 380.214 165.69C380.534 165.27 380.804 164.77 381.024 164.19L381.864 162.06L375.384 145.92ZM400.846 145.62C402.826 145.62 404.416 146.31 405.616 147.69C406.836 149.07 407.446 151.15 407.446 153.93C407.446 155.75 407.166 157.29 406.606 158.55C406.066 159.79 405.296 160.73 404.296 161.37C403.316 161.99 402.156 162.3 400.816 162.3C399.996 162.3 399.266 162.19 398.626 161.97C397.986 161.75 397.436 161.47 396.976 161.13C396.536 160.77 396.156 160.38 395.836 159.96H395.656C395.696 160.3 395.736 160.73 395.776 161.25C395.816 161.77 395.836 162.22 395.836 162.6V169.2H393.196V145.92H395.356L395.716 148.11H395.836C396.156 147.65 396.536 147.23 396.976 146.85C397.436 146.47 397.976 146.17 398.596 145.95C399.236 145.73 399.986 145.62 400.846 145.62ZM400.366 147.84C399.286 147.84 398.416 148.05 397.756 148.47C397.096 148.87 396.616 149.48 396.316 150.3C396.016 151.12 395.856 152.16 395.836 153.42V153.93C395.836 155.25 395.976 156.37 396.256 157.29C396.536 158.21 397.006 158.91 397.666 159.39C398.346 159.87 399.266 160.11 400.426 160.11C401.406 160.11 402.206 159.84 402.826 159.3C403.466 158.76 403.936 158.03 404.236 157.11C404.556 156.17 404.716 155.1 404.716 153.9C404.716 152.06 404.356 150.59 403.636 149.49C402.936 148.39 401.846 147.84 400.366 147.84ZM417.864 145.62C419.244 145.62 420.424 145.92 421.404 146.52C422.404 147.12 423.164 147.97 423.684 149.07C424.224 150.15 424.494 151.42 424.494 152.88V154.47H413.484C413.524 156.29 413.984 157.68 414.864 158.64C415.764 159.58 417.014 160.05 418.614 160.05C419.634 160.05 420.534 159.96 421.314 159.78C422.114 159.58 422.934 159.3 423.774 158.94V161.25C422.954 161.61 422.144 161.87 421.344 162.03C420.544 162.21 419.594 162.3 418.494 162.3C416.974 162.3 415.624 161.99 414.444 161.37C413.284 160.75 412.374 159.83 411.714 158.61C411.074 157.37 410.754 155.86 410.754 154.08C410.754 152.32 411.044 150.81 411.624 149.55C412.224 148.29 413.054 147.32 414.114 146.64C415.194 145.96 416.444 145.62 417.864 145.62ZM417.834 147.78C416.574 147.78 415.574 148.19 414.834 149.01C414.114 149.81 413.684 150.93 413.544 152.37H421.734C421.734 151.45 421.594 150.65 421.314 149.97C421.034 149.29 420.604 148.76 420.024 148.38C419.464 147.98 418.734 147.78 417.834 147.78ZM441.097 156.27C441.097 157.55 440.787 158.64 440.167 159.54C439.547 160.42 438.657 161.1 437.497 161.58C436.357 162.06 435.007 162.3 433.447 162.3C432.647 162.3 431.877 162.26 431.137 162.18C430.417 162.1 429.757 161.99 429.157 161.85C428.557 161.69 428.027 161.5 427.567 161.28V158.7C428.287 159.02 429.177 159.31 430.237 159.57C431.317 159.83 432.427 159.96 433.567 159.96C434.627 159.96 435.517 159.82 436.237 159.54C436.957 159.26 437.497 158.86 437.857 158.34C438.217 157.82 438.397 157.21 438.397 156.51C438.397 155.81 438.247 155.22 437.947 154.74C437.647 154.26 437.127 153.82 436.387 153.42C435.667 153 434.657 152.56 433.357 152.1C432.437 151.76 431.627 151.4 430.927 151.02C430.247 150.62 429.677 150.17 429.217 149.67C428.757 149.17 428.407 148.6 428.167 147.96C427.947 147.32 427.837 146.58 427.837 145.74C427.837 144.6 428.127 143.63 428.707 142.83C429.287 142.01 430.087 141.38 431.107 140.94C432.147 140.5 433.337 140.28 434.677 140.28C435.857 140.28 436.937 140.39 437.917 140.61C438.897 140.83 439.787 141.12 440.587 141.48L439.747 143.79C439.007 143.47 438.197 143.2 437.317 142.98C436.457 142.76 435.557 142.65 434.617 142.65C433.717 142.65 432.967 142.78 432.367 143.04C431.767 143.3 431.317 143.67 431.017 144.15C430.717 144.61 430.567 145.15 430.567 145.77C430.567 146.49 430.717 147.09 431.017 147.57C431.317 148.05 431.807 148.48 432.487 148.86C433.167 149.24 434.087 149.65 435.247 150.09C436.507 150.55 437.567 151.05 438.427 151.59C439.307 152.11 439.967 152.74 440.407 153.48C440.867 154.22 441.097 155.15 441.097 156.27ZM451.502 162.3C450.082 162.3 448.812 162.01 447.692 161.43C446.592 160.85 445.722 159.95 445.082 158.73C444.462 157.51 444.152 155.95 444.152 154.05C444.152 152.07 444.482 150.46 445.142 149.22C445.802 147.98 446.692 147.07 447.812 146.49C448.952 145.91 450.242 145.62 451.682 145.62C452.502 145.62 453.292 145.71 454.052 145.89C454.812 146.05 455.432 146.25 455.912 146.49L455.102 148.68C454.622 148.5 454.062 148.33 453.422 148.17C452.782 148.01 452.182 147.93 451.622 147.93C450.542 147.93 449.652 148.16 448.952 148.62C448.252 149.08 447.732 149.76 447.392 150.66C447.052 151.56 446.882 152.68 446.882 154.02C446.882 155.3 447.052 156.39 447.392 157.29C447.732 158.19 448.242 158.87 448.922 159.33C449.602 159.79 450.452 160.02 451.472 160.02C452.352 160.02 453.122 159.93 453.782 159.75C454.462 159.57 455.082 159.35 455.642 159.09V161.43C455.102 161.71 454.502 161.92 453.842 162.06C453.202 162.22 452.422 162.3 451.502 162.3ZM466.966 145.62C467.266 145.62 467.586 145.64 467.926 145.68C468.286 145.7 468.596 145.74 468.856 145.8L468.526 148.23C468.266 148.17 467.976 148.12 467.656 148.08C467.356 148.04 467.066 148.02 466.786 148.02C466.166 148.02 465.576 148.15 465.016 148.41C464.456 148.67 463.956 149.04 463.516 149.52C463.076 149.98 462.726 150.54 462.466 151.2C462.226 151.86 462.106 152.6 462.106 153.42V162H459.466V145.92H461.626L461.926 148.86H462.046C462.386 148.26 462.796 147.72 463.276 147.24C463.756 146.74 464.306 146.35 464.926 146.07C465.546 145.77 466.226 145.62 466.966 145.62ZM474.499 145.92V162H471.859V145.92H474.499ZM473.209 139.89C473.609 139.89 473.959 140.03 474.259 140.31C474.579 140.57 474.739 140.99 474.739 141.57C474.739 142.13 474.579 142.55 474.259 142.83C473.959 143.11 473.609 143.25 473.209 143.25C472.769 143.25 472.399 143.11 472.099 142.83C471.799 142.55 471.649 142.13 471.649 141.57C471.649 140.99 471.799 140.57 472.099 140.31C472.399 140.03 472.769 139.89 473.209 139.89ZM487.243 145.62C489.223 145.62 490.813 146.31 492.013 147.69C493.233 149.07 493.843 151.15 493.843 153.93C493.843 155.75 493.563 157.29 493.003 158.55C492.463 159.79 491.693 160.73 490.693 161.37C489.713 161.99 488.553 162.3 487.213 162.3C486.393 162.3 485.663 162.19 485.023 161.97C484.383 161.75 483.833 161.47 483.373 161.13C482.933 160.77 482.553 160.38 482.233 159.96H482.053C482.093 160.3 482.133 160.73 482.173 161.25C482.213 161.77 482.233 162.22 482.233 162.6V169.2H479.593V145.92H481.753L482.113 148.11H482.233C482.553 147.65 482.933 147.23 483.373 146.85C483.833 146.47 484.373 146.17 484.993 145.95C485.633 145.73 486.383 145.62 487.243 145.62ZM486.763 147.84C485.683 147.84 484.813 148.05 484.153 148.47C483.493 148.87 483.013 149.48 482.713 150.3C482.413 151.12 482.253 152.16 482.233 153.42V153.93C482.233 155.25 482.373 156.37 482.653 157.29C482.933 158.21 483.403 158.91 484.063 159.39C484.743 159.87 485.663 160.11 486.823 160.11C487.803 160.11 488.603 159.84 489.223 159.3C489.863 158.76 490.333 158.03 490.633 157.11C490.953 156.17 491.113 155.1 491.113 153.9C491.113 152.06 490.753 150.59 490.033 149.49C489.333 148.39 488.243 147.84 486.763 147.84ZM503.42 160.14C503.82 160.14 504.23 160.11 504.65 160.05C505.07 159.97 505.41 159.89 505.67 159.81V161.82C505.39 161.96 504.99 162.07 504.47 162.15C503.95 162.25 503.45 162.3 502.97 162.3C502.13 162.3 501.35 162.16 500.63 161.88C499.93 161.58 499.36 161.07 498.92 160.35C498.48 159.63 498.26 158.62 498.26 157.32V147.96H495.98V146.7L498.29 145.65L499.34 142.23H500.9V145.92H505.55V147.96H500.9V157.26C500.9 158.24 501.13 158.97 501.59 159.45C502.07 159.91 502.68 160.14 503.42 160.14ZM522.773 145.65C524.733 145.65 526.183 146.08 527.123 146.94C528.063 147.8 528.533 149.17 528.533 151.05V162H526.613L526.103 159.72H525.983C525.523 160.3 525.043 160.79 524.543 161.19C524.063 161.57 523.503 161.85 522.863 162.03C522.243 162.21 521.483 162.3 520.583 162.3C519.623 162.3 518.753 162.13 517.973 161.79C517.213 161.45 516.613 160.93 516.173 160.23C515.733 159.51 515.513 158.61 515.513 157.53C515.513 155.93 516.143 154.7 517.403 153.84C518.663 152.96 520.603 152.48 523.223 152.4L525.953 152.31V151.35C525.953 150.01 525.663 149.08 525.083 148.56C524.503 148.04 523.683 147.78 522.623 147.78C521.783 147.78 520.983 147.91 520.223 148.17C519.463 148.41 518.753 148.69 518.093 149.01L517.283 147.03C517.983 146.65 518.813 146.33 519.773 146.07C520.733 145.79 521.733 145.65 522.773 145.65ZM523.553 154.23C521.553 154.31 520.163 154.63 519.383 155.19C518.623 155.75 518.243 156.54 518.243 157.56C518.243 158.46 518.513 159.12 519.053 159.54C519.613 159.96 520.323 160.17 521.183 160.17C522.543 160.17 523.673 159.8 524.573 159.06C525.473 158.3 525.923 157.14 525.923 155.58V154.14L523.553 154.23ZM541.239 145.62C543.159 145.62 544.609 146.09 545.589 147.03C546.569 147.95 547.059 149.45 547.059 151.53V162H544.449V151.71C544.449 150.41 544.159 149.44 543.579 148.8C542.999 148.16 542.089 147.84 540.849 147.84C539.069 147.84 537.839 148.34 537.159 149.34C536.479 150.34 536.139 151.78 536.139 153.66V162H533.499V145.92H535.629L536.019 148.11H536.169C536.529 147.55 536.969 147.09 537.489 146.73C538.029 146.35 538.619 146.07 539.259 145.89C539.899 145.71 540.559 145.62 541.239 145.62ZM557.744 162.3C555.744 162.3 554.144 161.61 552.944 160.23C551.744 158.83 551.144 156.75 551.144 153.99C551.144 151.23 551.744 149.15 552.944 147.75C554.164 146.33 555.774 145.62 557.774 145.62C558.614 145.62 559.344 145.73 559.964 145.95C560.584 146.15 561.124 146.43 561.584 146.79C562.044 147.15 562.434 147.55 562.754 147.99H562.934C562.914 147.73 562.874 147.35 562.814 146.85C562.774 146.33 562.754 145.92 562.754 145.62V139.2H565.394V162H563.264L562.874 159.84H562.754C562.434 160.3 562.044 160.72 561.584 161.1C561.124 161.46 560.574 161.75 559.934 161.97C559.314 162.19 558.584 162.3 557.744 162.3ZM558.164 160.11C559.864 160.11 561.054 159.65 561.734 158.73C562.434 157.79 562.784 156.38 562.784 154.5V154.02C562.784 152.02 562.454 150.49 561.794 149.43C561.134 148.35 559.914 147.81 558.134 147.81C556.714 147.81 555.644 148.38 554.924 149.52C554.224 150.64 553.874 152.15 553.874 154.05C553.874 155.97 554.224 157.46 554.924 158.52C555.644 159.58 556.724 160.11 558.164 160.11ZM202.88 208.7C202.4 208.7 201.98 208.66 201.62 208.58C201.26 208.52 200.94 208.43 200.66 208.31V206.03C200.98 206.11 201.32 206.18 201.68 206.24C202.04 206.3 202.42 206.33 202.82 206.33C203.32 206.33 203.79 206.23 204.23 206.03C204.69 205.83 205.06 205.48 205.34 204.98C205.62 204.48 205.76 203.78 205.76 202.88V181.58H208.46V202.67C208.46 204.05 208.23 205.18 207.77 206.06C207.31 206.96 206.66 207.62 205.82 208.04C204.98 208.48 204 208.7 202.88 208.7ZM219.843 186.65C221.803 186.65 223.253 187.08 224.193 187.94C225.133 188.8 225.603 190.17 225.603 192.05V203H223.683L223.173 200.72H223.053C222.593 201.3 222.113 201.79 221.613 202.19C221.133 202.57 220.573 202.85 219.933 203.03C219.313 203.21 218.553 203.3 217.653 203.3C216.693 203.3 215.823 203.13 215.043 202.79C214.283 202.45 213.683 201.93 213.243 201.23C212.803 200.51 212.583 199.61 212.583 198.53C212.583 196.93 213.213 195.7 214.473 194.84C215.733 193.96 217.673 193.48 220.293 193.4L223.023 193.31V192.35C223.023 191.01 222.733 190.08 222.153 189.56C221.573 189.04 220.753 188.78 219.693 188.78C218.853 188.78 218.053 188.91 217.293 189.17C216.533 189.41 215.823 189.69 215.163 190.01L214.353 188.03C215.053 187.65 215.883 187.33 216.843 187.07C217.803 186.79 218.803 186.65 219.843 186.65ZM220.623 195.23C218.623 195.31 217.233 195.63 216.453 196.19C215.693 196.75 215.313 197.54 215.313 198.56C215.313 199.46 215.583 200.12 216.123 200.54C216.683 200.96 217.393 201.17 218.253 201.17C219.613 201.17 220.743 200.8 221.643 200.06C222.543 199.3 222.993 198.14 222.993 196.58V195.14L220.623 195.23ZM234.11 203L228.02 186.92H230.84L234.26 196.4C234.42 196.84 234.59 197.33 234.77 197.87C234.95 198.41 235.11 198.93 235.25 199.43C235.39 199.91 235.49 200.32 235.55 200.66H235.67C235.75 200.32 235.86 199.9 236 199.4C236.16 198.9 236.33 198.38 236.51 197.84C236.71 197.3 236.88 196.82 237.02 196.4L240.44 186.92H243.26L237.14 203H234.11ZM251.894 186.65C253.854 186.65 255.304 187.08 256.244 187.94C257.184 188.8 257.654 190.17 257.654 192.05V203H255.734L255.224 200.72H255.104C254.644 201.3 254.164 201.79 253.664 202.19C253.184 202.57 252.624 202.85 251.984 203.03C251.364 203.21 250.604 203.3 249.704 203.3C248.744 203.3 247.874 203.13 247.094 202.79C246.334 202.45 245.734 201.93 245.294 201.23C244.854 200.51 244.634 199.61 244.634 198.53C244.634 196.93 245.264 195.7 246.524 194.84C247.784 193.96 249.724 193.48 252.344 193.4L255.074 193.31V192.35C255.074 191.01 254.784 190.08 254.204 189.56C253.624 189.04 252.804 188.78 251.744 188.78C250.904 188.78 250.104 188.91 249.344 189.17C248.584 189.41 247.874 189.69 247.214 190.01L246.404 188.03C247.104 187.65 247.934 187.33 248.894 187.07C249.854 186.79 250.854 186.65 251.894 186.65ZM252.674 195.23C250.674 195.31 249.284 195.63 248.504 196.19C247.744 196.75 247.364 197.54 247.364 198.56C247.364 199.46 247.634 200.12 248.174 200.54C248.734 200.96 249.444 201.17 250.304 201.17C251.664 201.17 252.794 200.8 253.694 200.06C254.594 199.3 255.044 198.14 255.044 196.58V195.14L252.674 195.23ZM275.13 197.27C275.13 198.55 274.82 199.64 274.2 200.54C273.58 201.42 272.69 202.1 271.53 202.58C270.39 203.06 269.04 203.3 267.48 203.3C266.68 203.3 265.91 203.26 265.17 203.18C264.45 203.1 263.79 202.99 263.19 202.85C262.59 202.69 262.06 202.5 261.6 202.28V199.7C262.32 200.02 263.21 200.31 264.27 200.57C265.35 200.83 266.46 200.96 267.6 200.96C268.66 200.96 269.55 200.82 270.27 200.54C270.99 200.26 271.53 199.86 271.89 199.34C272.25 198.82 272.43 198.21 272.43 197.51C272.43 196.81 272.28 196.22 271.98 195.74C271.68 195.26 271.16 194.82 270.42 194.42C269.7 194 268.69 193.56 267.39 193.1C266.47 192.76 265.66 192.4 264.96 192.02C264.28 191.62 263.71 191.17 263.25 190.67C262.79 190.17 262.44 189.6 262.2 188.96C261.98 188.32 261.87 187.58 261.87 186.74C261.87 185.6 262.16 184.63 262.74 183.83C263.32 183.01 264.12 182.38 265.14 181.94C266.18 181.5 267.37 181.28 268.71 181.28C269.89 181.28 270.97 181.39 271.95 181.61C272.93 181.83 273.82 182.12 274.62 182.48L273.78 184.79C273.04 184.47 272.23 184.2 271.35 183.98C270.49 183.76 269.59 183.65 268.65 183.65C267.75 183.65 267 183.78 266.4 184.04C265.8 184.3 265.35 184.67 265.05 185.15C264.75 185.61 264.6 186.15 264.6 186.77C264.6 187.49 264.75 188.09 265.05 188.57C265.35 189.05 265.84 189.48 266.52 189.86C267.2 190.24 268.12 190.65 269.28 191.09C270.54 191.55 271.6 192.05 272.46 192.59C273.34 193.11 274 193.74 274.44 194.48C274.9 195.22 275.13 196.15 275.13 197.27ZM285.535 203.3C284.115 203.3 282.845 203.01 281.725 202.43C280.625 201.85 279.755 200.95 279.115 199.73C278.495 198.51 278.185 196.95 278.185 195.05C278.185 193.07 278.515 191.46 279.175 190.22C279.835 188.98 280.725 188.07 281.845 187.49C282.985 186.91 284.275 186.62 285.715 186.62C286.535 186.62 287.325 186.71 288.085 186.89C288.845 187.05 289.465 187.25 289.945 187.49L289.135 189.68C288.655 189.5 288.095 189.33 287.455 189.17C286.815 189.01 286.215 188.93 285.655 188.93C284.575 188.93 283.685 189.16 282.985 189.62C282.285 190.08 281.765 190.76 281.425 191.66C281.085 192.56 280.915 193.68 280.915 195.02C280.915 196.3 281.085 197.39 281.425 198.29C281.765 199.19 282.275 199.87 282.955 200.33C283.635 200.79 284.485 201.02 285.505 201.02C286.385 201.02 287.155 200.93 287.815 200.75C288.495 200.57 289.115 200.35 289.675 200.09V202.43C289.135 202.71 288.535 202.92 287.875 203.06C287.235 203.22 286.455 203.3 285.535 203.3ZM300.999 186.62C301.299 186.62 301.619 186.64 301.959 186.68C302.319 186.7 302.629 186.74 302.889 186.8L302.559 189.23C302.299 189.17 302.009 189.12 301.689 189.08C301.389 189.04 301.099 189.02 300.819 189.02C300.199 189.02 299.609 189.15 299.049 189.41C298.489 189.67 297.989 190.04 297.549 190.52C297.109 190.98 296.759 191.54 296.499 192.2C296.259 192.86 296.139 193.6 296.139 194.42V203H293.499V186.92H295.659L295.959 189.86H296.079C296.419 189.26 296.829 188.72 297.309 188.24C297.789 187.74 298.339 187.35 298.959 187.07C299.579 186.77 300.259 186.62 300.999 186.62ZM308.532 186.92V203H305.892V186.92H308.532ZM307.242 180.89C307.642 180.89 307.992 181.03 308.292 181.31C308.612 181.57 308.772 181.99 308.772 182.57C308.772 183.13 308.612 183.55 308.292 183.83C307.992 184.11 307.642 184.25 307.242 184.25C306.802 184.25 306.432 184.11 306.132 183.83C305.832 183.55 305.682 183.13 305.682 182.57C305.682 181.99 305.832 181.57 306.132 181.31C306.432 181.03 306.802 180.89 307.242 180.89ZM321.276 186.62C323.256 186.62 324.846 187.31 326.046 188.69C327.266 190.07 327.876 192.15 327.876 194.93C327.876 196.75 327.596 198.29 327.036 199.55C326.496 200.79 325.726 201.73 324.726 202.37C323.746 202.99 322.586 203.3 321.246 203.3C320.426 203.3 319.696 203.19 319.056 202.97C318.416 202.75 317.866 202.47 317.406 202.13C316.966 201.77 316.586 201.38 316.266 200.96H316.086C316.126 201.3 316.166 201.73 316.206 202.25C316.246 202.77 316.266 203.22 316.266 203.6V210.2H313.626V186.92H315.786L316.146 189.11H316.266C316.586 188.65 316.966 188.23 317.406 187.85C317.866 187.47 318.406 187.17 319.026 186.95C319.666 186.73 320.416 186.62 321.276 186.62ZM320.796 188.84C319.716 188.84 318.846 189.05 318.186 189.47C317.526 189.87 317.046 190.48 316.746 191.3C316.446 192.12 316.286 193.16 316.266 194.42V194.93C316.266 196.25 316.406 197.37 316.686 198.29C316.966 199.21 317.436 199.91 318.096 200.39C318.776 200.87 319.696 201.11 320.856 201.11C321.836 201.11 322.636 200.84 323.256 200.3C323.896 199.76 324.366 199.03 324.666 198.11C324.986 197.17 325.146 196.1 325.146 194.9C325.146 193.06 324.786 191.59 324.066 190.49C323.366 189.39 322.276 188.84 320.796 188.84ZM337.453 201.14C337.853 201.14 338.263 201.11 338.683 201.05C339.103 200.97 339.443 200.89 339.703 200.81V202.82C339.423 202.96 339.023 203.07 338.503 203.15C337.983 203.25 337.483 203.3 337.003 203.3C336.163 203.3 335.383 203.16 334.663 202.88C333.963 202.58 333.393 202.07 332.953 201.35C332.513 200.63 332.293 199.62 332.293 198.32V188.96H330.013V187.7L332.323 186.65L333.373 183.23H334.933V186.92H339.583V188.96H334.933V198.26C334.933 199.24 335.163 199.97 335.623 200.45C336.103 200.91 336.713 201.14 337.453 201.14ZM342.533 201.38C342.533 200.64 342.713 200.12 343.073 199.82C343.433 199.52 343.863 199.37 344.363 199.37C344.883 199.37 345.323 199.52 345.683 199.82C346.063 200.12 346.253 200.64 346.253 201.38C346.253 202.1 346.063 202.62 345.683 202.94C345.323 203.26 344.883 203.42 344.363 203.42C343.863 203.42 343.433 203.26 343.073 202.94C342.713 202.62 342.533 202.1 342.533 201.38Z" fill="black"/>
        <path d="M187.675 8.38518L502.423 77.5413L502.423 28.773L658.153 50.6596L718.865 204.029L736.019 61.6028L813.884 72.5461L810.598 95.9312L187.675 8.38518Z" fill="black"/>
        <path d="M729.089 88.2188L716.938 189.154L673.863 80.4546L729.089 88.2188Z" fill="white" stroke="#555555" stroke-width="7.37969"/>
    </g>
    <defs>
        <clipPath id="clip0_2739_945">
            <rect width="800" height="300" fill="white"/>
        </clipPath>
    </defs>
</svg>
